<svg xmlns="http://www.w3.org/2000/svg" viewBox="0 0 24 24" class="undefined">
    <defs>
        <style>
            .green-ic {
                fill: #00bc8c;
            }
            .green-ic:hover {
                fill: #455A64;
            }
        </style>
    </defs>
    <path d="M5 3H19A2 2 0 0 1 21 5V19A2 2 0 0 1 19 21H14.6C14.2 20.9 14.2 20.3 14.2 20.1L14.2 17.6C14.2 16.8 14 16.3 13.6 16 15.6 15.8 17.7 15 17.7 11.5 17.7 10.6 17.4 9.7 16.8 9.1 16.9 8.9 17.2 8 16.7 6.7 16.7 6.7 16 6.5 14.3 7.7 13.5 7.5 12.8 7.4 12 7.4 11.2 7.4 10.5 7.5 9.8 7.7 8 6.5 7.3 6.7 7.3 6.7 6.8 8 7.1 8.9 7.2 9.1 6.6 9.7 6.3 10.6 6.3 11.5 6.3 15 8.4 15.8 10.4 16 10.1 16.2 9.9 16.6 9.8 17.2 9.3 17.4 8 17.8 7.2 16.4 7.2 16.4 6.7 15.6 5.8 15.5 5.8 15.5 4.9 15.5 5.7 16.1 5.7 16.1 6.3 16.3 6.7 17.4 6.7 17.4 7.3 19.1 9.8 18.6L9.8 20.1C9.8 20.3 9.8 20.9 9.4 21H5A2 2 0 0 1 3 19V5A2 2 0 0 1 5 3Z" class="green-ic"/>
</svg>
